<?xml version="1.0" standalone="no"?>
<!DOCTYPE svg PUBLIC "-//W3C//DTD SVG 20010904//EN"
 "http://www.w3.org/TR/2001/REC-SVG-20010904/DTD/svg10.dtd">
<svg version="1.0" xmlns="http://www.w3.org/2000/svg"
 width="600.000000pt" height="600.000000pt" viewBox="0 0 600.000000 600.000000"
 preserveAspectRatio="xMidYMid meet">
<metadata>
Created by potrace 1.14, written by Peter Selinger 2001-2017
</metadata>
<g transform="translate(0.000000,600.000000) scale(0.100000,-0.100000)"
fill="#000000" stroke="none">
<path d="M3435 4944 c-201 -28 -355 -104 -468 -229 -79 -90 -158 -253 -196
-410 -32 -129 -41 -255 -41 -587 0 -357 3 -371 80 -427 106 -77 251 -55 315
47 l30 47 7 370 c8 456 24 598 88 768 56 151 167 220 315 198 113 -16 236
-100 269 -180 29 -75 40 -210 27 -351 -15 -161 -40 -260 -95 -375 -127 -266
-308 -450 -579 -590 -223 -115 -341 -139 -812 -170 -300 -19 -929 -55 -977
-55 l-38 0 0 610 0 610 73 0 c39 0 89 -5 109 -10 59 -17 104 -92 132 -221 7
-33 49 -75 80 -81 39 -8 89 15 113 51 28 41 31 121 8 197 -19 65 -100 181
-150 216 -82 57 -116 59 -652 55 -366 -2 -498 -6 -528 -16 -51 -17 -173 -139
-205 -206 -34 -72 -40 -196 -10 -243 23 -38 81 -66 113 -56 45 13 75 54 92
126 20 80 62 141 115 169 28 15 57 19 152 19 l118 0 0 -639 0 -638 -94 -42
c-128 -58 -297 -188 -426 -326 -56 -60 -109 -123 -117 -140 -9 -16 -31 -51
-49 -77 -142 -200 -237 -558 -221 -837 22 -389 238 -588 618 -568 109 6 233
39 334 89 45 23 169 146 213 211 38 57 94 192 125 302 42 151 50 246 51 597
l1 326 -30 43 c-59 84 -135 119 -229 105 -34 -5 -57 -18 -96 -53 -28 -25 -56
-55 -63 -67 -8 -15 -14 -133 -18 -411 -5 -341 -9 -405 -28 -510 -48 -260 -90
-344 -198 -392 -102 -45 -278 -19 -362 53 -85 74 -131 250 -111 434 14 139 60
311 107 405 54 106 167 257 252 337 91 86 276 214 370 255 190 85 374 124 646
138 106 5 359 21 910 55 88 6 175 10 193 10 l33 0 -3 -559 c-3 -545 -4 -560
-23 -587 -47 -63 -142 -83 -200 -42 -49 33 -72 76 -79 146 -9 84 -23 110 -65
128 -47 20 -115 3 -139 -35 -26 -39 -21 -178 8 -256 25 -68 101 -147 175 -184
77 -38 135 -42 607 -39 443 3 454 3 509 25 70 29 111 59 154 115 44 56 64 114
72 203 7 90 -8 140 -51 166 -37 23 -62 24 -109 4 -46 -19 -54 -35 -66 -129 -7
-58 -16 -85 -36 -112 -34 -44 -59 -54 -143 -54 -81 0 -130 28 -162 90 -19 38
-20 59 -20 599 l0 559 77 42 c110 59 230 139 293 195 69 61 195 199 265 290
59 78 173 289 206 381 59 170 86 501 55 677 -18 96 -53 185 -99 245 -47 62
-162 139 -246 166 -76 24 -212 39 -276 30z"/>
<path d="M3917 2118 c-14 -11 -15 -19 -7 -48 5 -19 10 -140 10 -268 0 -258 7
-296 55 -308 24 -6 92 0 101 9 3 2 0 26 -6 53 -6 27 -9 105 -8 174 l3 125 46
-65 c26 -36 62 -95 81 -130 79 -149 105 -173 177 -168 l43 3 1 302 c0 234 -3
306 -13 318 -10 12 -28 15 -69 13 l-56 -3 4 -156 c2 -99 0 -159 -7 -162 -5 -4
-27 26 -47 65 -44 83 -145 219 -180 242 -29 19 -104 21 -128 4z"/>
<path d="M4680 2111 c-14 -27 -68 -175 -85 -233 -7 -26 -41 -113 -75 -193 -60
-138 -62 -146 -47 -169 17 -25 78 -51 101 -43 7 3 16 18 20 34 4 15 19 56 33
91 l26 63 90 -3 91 -3 40 -80 c46 -89 73 -107 123 -83 39 18 40 55 5 136 -16
37 -64 157 -107 266 -43 110 -86 207 -97 218 -26 26 -103 25 -118 -1z m89
-272 c17 -50 14 -59 -19 -59 -33 0 -38 17 -20 64 13 35 26 33 39 -5z"/>
<path d="M5582 2113 c-14 -27 -24 -535 -11 -571 16 -47 48 -54 209 -50 137 3
142 4 162 28 15 19 19 34 15 64 -7 50 -19 61 -47 46 -36 -19 -180 -26 -191 -9
-6 8 -9 113 -7 247 3 222 2 234 -16 248 -29 21 -103 18 -114 -3z"/>
<path d="M5090 1835 l0 -286 31 -30 32 -31 147 3 c131 4 151 6 170 24 18 16
21 28 17 63 -2 24 -7 45 -10 49 -3 3 -36 0 -74 -7 -37 -6 -93 -10 -123 -8
l-55 3 0 75 0 75 73 5 c80 5 102 20 102 69 0 48 -13 56 -85 53 -80 -4 -95 6
-95 63 l0 42 107 7 c118 8 153 21 153 60 0 50 -22 56 -213 56 l-177 0 0 -285z"/>
</g>
</svg>
